<?xml version="1.0" standalone="no"?>
<!DOCTYPE svg PUBLIC "-//W3C//DTD SVG 20010904//EN"
 "http://www.w3.org/TR/2001/REC-SVG-20010904/DTD/svg10.dtd">
<svg version="1.0" xmlns="http://www.w3.org/2000/svg"
 width="484.000000pt" height="484.000000pt" viewBox="0 0 484.000000 484.000000"
 preserveAspectRatio="xMidYMid meet">
<metadata>
Created by potrace 1.14, written by Peter Selinger 2001-2017
</metadata>
<g transform="translate(0.000000,484.000000) scale(0.100000,-0.100000)"
fill="#000000" stroke="none">
<path d="M3100 3961 c-28 -17 -181 -52 -277 -63 -7 -1 -13 -5 -13 -10 0 -4
-11 -8 -25 -8 -27 0 -287 -64 -322 -80 -12 -5 -52 -28 -89 -52 -37 -24 -71
-42 -76 -40 -5 1 -7 -2 -4 -7 4 -5 -11 -19 -31 -32 -21 -12 -65 -48 -99 -80
-34 -32 -72 -60 -85 -63 -73 -15 -178 -13 -257 5 -46 10 -113 18 -149 17 -44
-1 -68 2 -71 10 -2 8 -8 7 -19 -3 -8 -8 -24 -15 -35 -15 -12 0 -64 -25 -115
-55 -52 -30 -96 -55 -99 -55 -3 0 -25 -14 -50 -30 -24 -17 -44 -28 -44 -24 0
4 -6 1 -12 -8 -11 -13 -67 -54 -213 -152 -43 -29 -122 -127 -131 -163 -3 -13
-12 -23 -19 -23 -15 0 -29 -35 -21 -49 4 -5 -2 -42 -11 -82 -13 -51 -23 -73
-35 -77 -22 -5 -24 -22 -2 -22 8 0 12 -5 8 -11 -3 -6 -8 -38 -10 -72 -2 -33
-7 -63 -11 -66 -5 -3 -9 -69 -11 -146 -2 -77 -9 -162 -17 -190 -34 -126 -38
-167 -31 -318 4 -78 7 -91 29 -110 31 -28 44 -53 57 -113 6 -27 30 -80 53
-119 22 -38 58 -104 78 -146 20 -42 42 -80 48 -83 6 -4 18 -24 28 -44 31 -69
111 -177 173 -237 102 -98 108 -103 116 -96 4 3 2 -4 -4 -16 -10 -18 -9 -20 8
-16 15 4 20 0 20 -16 0 -11 6 -21 13 -21 7 0 23 -9 35 -20 12 -11 28 -20 37
-20 8 0 15 -3 15 -7 0 -13 52 -33 85 -33 17 0 35 -4 40 -9 6 -5 37 -16 70 -26
33 -10 65 -22 70 -26 16 -12 85 -22 85 -12 0 5 16 7 36 5 30 -4 36 -1 41 17 3
12 11 20 18 17 64 -24 185 -9 283 35 31 14 47 18 50 10 6 -17 22 -13 22 7 0
12 15 2 49 -33 80 -83 210 -160 299 -176 67 -13 98 -6 105 22 5 19 11 21 46
16 23 -3 41 -1 41 4 0 5 49 9 108 8 133 -1 178 7 197 34 30 43 19 82 -54 197
-39 60 -77 122 -85 139 -15 28 -15 30 4 36 11 4 20 15 20 27 0 14 5 18 16 14
8 -3 13 -2 10 3 -5 8 11 19 24 18 3 0 17 11 32 24 15 14 49 36 75 49 26 13 55
29 63 36 8 7 38 24 65 40 28 15 62 40 76 55 14 15 84 55 155 89 71 34 143 69
159 78 45 24 211 179 259 242 23 30 53 60 66 67 21 11 26 8 56 -32 34 -44 103
-99 162 -129 20 -11 30 -21 26 -29 -4 -7 -4 -9 1 -5 4 4 33 -7 64 -25 52 -30
64 -32 169 -36 105 -3 116 -1 167 23 70 35 76 55 36 111 -17 24 -34 59 -37 77
-14 77 -63 217 -84 238 -3 3 -23 32 -45 65 -22 33 -58 77 -80 98 -29 27 -35
37 -22 37 9 0 17 4 17 9 0 5 14 14 31 22 39 16 89 57 89 73 0 7 10 23 23 36
12 14 21 26 20 27 -8 9 -1 23 8 17 7 -4 10 -1 7 7 -3 8 20 52 51 99 31 47 65
102 76 123 11 20 23 37 26 37 19 0 -25 221 -49 250 -16 19 -22 20 -107 11 -49
-5 -109 -16 -132 -25 -22 -8 -44 -12 -47 -9 -3 4 -6 1 -6 -5 0 -16 -78 -55
-96 -48 -8 3 -14 1 -14 -4 0 -6 -6 -10 -13 -10 -21 0 -143 -122 -165 -165
l-19 -39 -17 27 c-10 14 -14 32 -10 39 4 7 4 10 -1 6 -10 -10 -61 34 -96 82
-16 22 -42 46 -58 55 -20 10 -28 20 -25 30 4 8 1 15 -6 15 -6 0 -8 -5 -4 -11
10 -17 -61 -2 -109 23 -22 11 -67 42 -101 70 -102 83 -199 148 -222 148 -12 0
-38 7 -58 15 -20 9 -71 20 -114 25 -42 6 -79 15 -80 20 -2 6 -8 8 -12 5 -11
-7 -101 14 -115 26 -5 5 -17 9 -27 9 -11 0 -23 11 -29 28 -12 31 -2 84 55 292
60 216 65 232 91 266 44 57 19 117 -35 85z m-750 -1121 c0 -21 -15 -27 -25
-10 -7 12 2 30 16 30 5 0 9 -9 9 -20z m-1213 -1182 c-3 -7 -5 -2 -5 12 0 14 2
19 5 13 2 -7 2 -19 0 -25z m560 -90 c-2 -18 -4 -6 -4 27 0 33 2 48 4 33 2 -15
2 -42 0 -60z"/>
<path d="M2355 3770 c3 -5 8 -10 11 -10 2 0 4 5 4 10 0 6 -5 10 -11 10 -5 0
-7 -4 -4 -10z"/>
<path d="M1436 3518 c3 -5 10 -6 15 -3 13 9 11 12 -6 12 -8 0 -12 -4 -9 -9z"/>
<path d="M1247 3439 c7 -7 15 -10 18 -7 3 3 -2 9 -12 12 -14 6 -15 5 -6 -5z"/>
<path d="M332 3275 c-1 -13 2 -26 6 -29 4 -2 9 6 10 19 1 13 -2 26 -6 29 -4 2
-9 -6 -10 -19z"/>
<path d="M570 3290 c0 -5 5 -10 10 -10 6 0 10 5 10 10 0 6 -4 10 -10 10 -5 0
-10 -4 -10 -10z"/>
<path d="M3260 3275 c-7 -9 -8 -15 -2 -15 5 0 12 7 16 15 3 8 4 15 2 15 -2 0
-9 -7 -16 -15z"/>
<path d="M400 3223 c-9 -12 -20 -19 -24 -16 -3 3 -6 -7 -7 -23 -3 -92 13 -164
37 -164 8 0 14 -4 14 -10 0 -5 -7 -10 -15 -10 -8 0 -15 -4 -15 -10 0 -5 -6
-10 -13 -10 -7 0 -19 -9 -27 -21 -8 -11 -23 -30 -32 -41 -20 -24 -23 -38 -7
-38 5 0 8 -4 5 -8 -3 -5 8 -28 25 -50 24 -33 37 -42 61 -42 23 0 28 -3 20 -12
-8 -10 0 -12 39 -10 27 2 46 8 43 13 -3 5 2 9 10 9 16 0 39 17 82 58 13 12 28
22 34 22 15 0 41 26 33 34 -4 3 -1 6 6 6 7 0 19 6 27 14 15 16 19 46 6 46 -5
0 -23 32 -42 70 -19 39 -38 70 -43 70 -4 0 -5 9 -2 20 5 14 2 20 -9 20 -9 0
-16 9 -16 20 0 11 -5 20 -11 20 -5 0 -8 4 -5 9 3 5 -2 15 -11 22 -12 10 -14
10 -9 2 10 -17 -2 -16 -19 1 -8 7 -11 16 -8 20 4 3 -7 6 -23 7 -16 0 -42 2
-57 3 -20 1 -35 -6 -47 -21z"/>
<path d="M310 3151 c0 -5 7 -12 16 -15 14 -5 15 -4 4 9 -14 17 -20 19 -20 6z"/>
<path d="M670 3131 c0 -13 29 -35 37 -27 3 3 1 6 -5 6 -7 0 -12 7 -12 15 0 8
-4 15 -10 15 -5 0 -10 -4 -10 -9z"/>
<path d="M333 3015 c0 -8 4 -12 9 -9 4 3 8 9 8 15 0 5 -4 9 -8 9 -5 0 -9 -7
-9 -15z"/>
<path d="M325 2674 c-13 -18 -19 -43 -20 -80 0 -30 3 -54 8 -54 13 0 7 -18 -8
-24 -8 -3 -14 0 -12 6 1 6 -5 13 -13 15 -10 3 -11 2 -4 -4 6 -4 9 -17 7 -28
-13 -52 -14 -105 -4 -105 6 0 20 -9 31 -20 21 -21 80 -28 80 -10 0 6 6 10 13
8 6 -2 13 1 14 5 1 5 12 17 24 28 12 10 19 19 15 19 -4 0 -1 6 6 14 7 8 16 12
21 9 4 -2 7 3 7 13 0 14 3 14 15 4 9 -7 18 -10 22 -6 3 3 1 6 -6 6 -9 0 -12 9
-8 26 2 14 -1 31 -8 37 -6 7 -18 23 -24 36 -11 19 -11 25 0 33 10 6 7 7 -9 3
-21 -6 -23 -4 -17 14 5 16 2 21 -12 21 -26 1 -56 26 -48 40 5 9 1 10 -15 5
-13 -4 -25 -3 -29 4 -4 6 -14 0 -26 -15z"/>
<path d="M4723 2683 c-15 -5 -17 -23 -4 -23 5 0 11 7 15 15 3 8 4 15 3 14 -1
0 -8 -3 -14 -6z"/>
<path d="M559 2658 c-10 -33 6 -46 28 -24 4 4 1 6 -7 4 -8 -1 -14 3 -12 10 2
10 -6 19 -9 10z"/>
<path d="M753 2585 c0 -8 4 -12 9 -9 5 3 6 10 3 15 -9 13 -12 11 -12 -6z"/>
<path d="M450 2390 c0 -5 5 -10 11 -10 5 0 7 5 4 10 -3 6 -8 10 -11 10 -2 0
-4 -4 -4 -10z"/>
<path d="M70 2281 c0 -6 4 -13 10 -16 6 -3 7 1 4 9 -7 18 -14 21 -14 7z"/>
<path d="M39 2243 c-12 -16 -12 -17 2 -6 9 7 19 10 22 6 4 -3 7 -1 7 5 0 17
-16 15 -31 -5z"/>
<path d="M91 2224 c0 -12 -8 -25 -17 -28 -35 -13 3 -156 41 -156 11 0 14 -13
13 -57 0 -32 -5 -64 -11 -70 -7 -10 -3 -13 17 -13 14 0 26 -6 26 -12 0 -9 15
-12 50 -10 27 2 47 8 44 13 -3 5 4 9 15 9 12 0 21 5 21 10 0 6 5 10 11 10 6 0
9 -7 6 -14 -4 -10 -1 -13 9 -9 11 4 12 8 3 20 -9 10 -9 19 1 38 7 14 17 25 22
25 5 0 7 4 3 9 -3 5 1 15 8 23 13 12 37 87 39 118 1 8 5 18 11 21 5 4 -4 7
-19 7 -15 0 -30 5 -32 11 -2 6 -12 11 -22 11 -10 0 -22 5 -26 12 -5 7 -3 8 6
3 8 -5 11 -4 6 3 -4 6 -14 8 -23 5 -11 -4 -14 -3 -9 5 4 7 2 12 -3 12 -6 0
-11 -4 -11 -10 0 -5 -9 -10 -21 -10 -13 0 -18 4 -13 12 5 8 2 9 -9 5 -10 -4
-17 -1 -17 6 0 8 -4 6 -10 -3 -5 -8 -10 -10 -10 -4 0 11 -59 12 -78 0 -6 -3
-13 2 -15 11 -4 14 -5 14 -6 -3z"/>
<path d="M30 2190 c0 -5 5 -10 11 -10 5 0 7 5 4 10 -3 6 -8 10 -11 10 -2 0 -4
-4 -4 -10z"/>
<path d="M695 1911 c-3 -5 -2 -12 3 -15 5 -3 9 1 9 9 0 17 -3 19 -12 6z"/>
<path d="M527 1839 c12 -12 25 -20 28 -17 3 3 -7 13 -22 23 l-28 17 22 -23z"/>
<path d="M370 1830 c0 -5 5 -10 10 -10 6 0 10 5 10 10 0 6 -4 10 -10 10 -5 0
-10 -4 -10 -10z"/>
<path d="M415 1818 c-22 -5 -52 -11 -67 -15 -16 -3 -28 -10 -28 -15 0 -5 -4
-6 -10 -3 -5 3 -7 0 -4 -8 3 -8 1 -18 -5 -22 -6 -3 -11 -15 -11 -26 0 -13 -4
-18 -12 -13 -10 6 -10 4 0 -7 6 -7 12 -23 12 -35 0 -13 5 -26 11 -30 6 -3 9
-17 7 -29 -4 -16 -1 -22 9 -18 7 3 13 9 13 14 0 5 5 9 11 9 5 0 7 -4 4 -10 -4
-6 7 -10 27 -10 32 0 33 -1 33 -42 1 -63 13 -98 33 -98 15 0 15 -2 2 -10 -10
-7 9 -10 63 -10 69 0 81 3 102 24 13 13 21 27 18 30 -4 3 -1 6 6 6 7 0 10 4 6
9 -3 6 4 19 16 29 13 13 17 22 10 27 -17 10 -13 51 11 120 25 73 17 90 -42 94
-57 3 -60 4 -60 13 0 4 -20 8 -45 8 -25 0 -45 4 -45 9 0 15 -23 18 -65 9z"/>
<path d="M690 1773 c0 -5 5 -15 10 -23 8 -12 10 -11 10 8 0 12 -4 22 -10 22
-5 0 -10 -3 -10 -7z"/>
<path d="M739 1768 c-6 -21 -5 -39 2 -44 5 -3 8 6 7 20 -2 22 -6 33 -9 24z"/>
<path d="M3920 1720 c-9 -6 -10 -10 -3 -10 6 0 15 5 18 10 8 12 4 12 -15 0z"/>
<path d="M715 1710 c-3 -5 -1 -10 4 -10 6 0 11 5 11 10 0 6 -2 10 -4 10 -3 0
-8 -4 -11 -10z"/>
<path d="M270 1630 c0 -5 5 -10 10 -10 6 0 10 5 10 10 0 6 -4 10 -10 10 -5 0
-10 -4 -10 -10z"/>
<path d="M370 1550 c0 -5 5 -10 11 -10 5 0 7 5 4 10 -3 6 -8 10 -11 10 -2 0
-4 -4 -4 -10z"/>
<path d="M1310 970 c8 -5 20 -10 25 -10 6 0 3 5 -5 10 -8 5 -19 10 -25 10 -5
0 -3 -5 5 -10z"/>
<path d="M1390 920 c0 -5 5 -10 11 -10 5 0 7 5 4 10 -3 6 -8 10 -11 10 -2 0
-4 -4 -4 -10z"/>
<path d="M3130 799 c0 -5 5 -7 10 -4 6 3 10 8 10 11 0 2 -4 4 -10 4 -5 0 -10
-5 -10 -11z"/>
</g>
</svg>
